<?xml version="1.0" encoding="UTF-8"?>
<svg width="137px" height="16px" viewBox="0 0 137 16" version="1.1" xmlns="http://www.w3.org/2000/svg" xmlns:xlink="http://www.w3.org/1999/xlink">
    <!-- Generator: Sketch 63.1 (92452) - https://sketch.com -->
    <title>logo</title>
    <desc>Created with Sketch.</desc>
    <defs>
        <linearGradient x1="50.0009245%" y1="-16.4149425%" x2="50.0009245%" y2="115.605165%" id="linearGradient-1">
            <stop stop-color="#F25E1C" offset="0%"></stop>
            <stop stop-color="#EDC621" offset="100%"></stop>
        </linearGradient>
        <linearGradient x1="50.0018881%" y1="0.184378661%" x2="50.0018881%" y2="99.1987617%" id="linearGradient-2">
            <stop stop-color="#F25E1C" offset="0%"></stop>
            <stop stop-color="#EDC621" offset="100%"></stop>
        </linearGradient>
        <linearGradient x1="50.00093%" y1="-16.4246446%" x2="50.00093%" y2="115.606466%" id="linearGradient-3">
            <stop stop-color="#F25E1C" offset="0%"></stop>
            <stop stop-color="#EDC621" offset="100%"></stop>
        </linearGradient>
    </defs>
    <g id="Page-1" stroke="none" stroke-width="1" fill="none" fill-rule="evenodd">
        <g id="wordmark" transform="translate(28.999100, 4.000000)">
            <path d="M101.330307,8 C101.116398,8 100.913536,7.95882501 100.727746,7.87848356 C100.538944,7.7951293 100.372235,7.68265127 100.231638,7.54205373 C100.09104,7.39944765 99.9785622,7.23273914 99.8962122,7.044941 C99.8249091,6.87923676 99.7847384,6.70047703 99.7767043,6.51167462 L100.586144,6.51167462 C100.604221,6.69445142 100.676529,6.84408737 100.802062,6.96962089 C100.948685,7.11523977 101.125436,7.18855134 101.330307,7.18855134 L106.338592,7.18855134 C106.543463,7.18855134 106.721218,7.11523977 106.867842,6.96861662 C107.01346,6.82199347 107.087776,6.64423801 107.087776,6.44037158 L107.087776,5.15490836 C107.087776,4.9520462 107.01346,4.77429074 106.867842,4.62766759 C106.721218,4.4790359 106.543463,4.40572433 106.338592,4.40572433 L101.330307,4.40572433 C101.117402,4.40572433 100.91454,4.36354507 100.727746,4.28320362 C100.539948,4.2018579 100.37324,4.0883756 100.231638,3.94777806 C100.09104,3.80517198 99.9775579,3.6374592 99.8962122,3.44966106 C99.8158707,3.26387145 99.7757,3.06000502 99.7757,2.84509164 L99.7757,1.56063269 C99.7757,1.34471504 99.8158707,1.14285714 99.8962122,0.958071805 C99.9785622,0.767260859 100.092044,0.599548079 100.231638,0.457946272 C100.372235,0.318353 100.538944,0.2048707 100.727746,0.123524981 C100.915544,0.0411749937 101.119411,0 101.330307,0 L106.338592,0 C106.551497,0 106.757372,0.0411749937 106.949187,0.123524981 C107.143011,0.2048707 107.311728,0.318353 107.451321,0.457946272 C107.592923,0.599548079 107.705401,0.767260859 107.786747,0.957067537 C107.85805,1.12277178 107.899225,1.30052724 107.906255,1.49033392 L107.083759,1.49033392 C107.065682,1.30755712 106.993375,1.15892543 106.867842,1.03238765 C106.721218,0.884760231 106.543463,0.811448657 106.338592,0.811448657 L101.330307,0.811448657 C101.125436,0.811448657 100.948685,0.884760231 100.802062,1.03238765 C100.655439,1.17700226 100.581123,1.35576199 100.581123,1.56063269 L100.581123,2.84509164 C100.581123,3.04996234 100.655439,3.22872207 100.802062,3.37434095 C100.946677,3.51995983 101.124432,3.59427567 101.330307,3.59427567 L106.338592,3.59427567 C106.550493,3.59427567 106.755364,3.63645493 106.950192,3.71780065 C107.143011,3.79914637 107.312732,3.91262867 107.451321,4.05222194 C107.591919,4.19382375 107.705401,4.36153653 107.786747,4.55033894 C107.867088,4.73813708 107.908263,4.94099925 107.908263,5.15490836 L107.908263,6.44037158 C107.908263,6.65428069 107.867088,6.85814713 107.786747,7.044941 C107.705401,7.23273914 107.592923,7.39944765 107.451321,7.543058 C107.311728,7.68265127 107.143011,7.7951293 106.949187,7.87848356 C106.759381,7.95882501 106.55451,8 106.338592,8 L101.330307,8 Z" id="s2" fill="#F7B154"></path>
            <path d="M90.5125071,0.811448657 C90.3076364,0.811448657 90.1308852,0.884760231 89.984262,1.03138338 C89.8376389,1.17800653 89.763323,1.35576199 89.763323,1.56063269 L89.763323,3.59427567 L96.2699763,3.59427567 L96.2699763,1.56063269 C96.2699763,1.35877479 96.1996776,1.18101933 96.0600843,1.03540045 C95.9174782,0.885764499 95.7357057,0.811448657 95.5207923,0.811448657 L90.5125071,0.811448657 Z M90.5125071,8 C90.298598,8 90.0957358,7.95882501 89.9099462,7.87848356 C89.7201395,7.7951293 89.553431,7.68265127 89.4138377,7.543058 C89.2732402,7.40045192 89.1597579,7.23374341 89.0784122,7.044941 C88.9980707,6.85814713 88.9579,6.65528496 88.9579,6.44037158 L88.9579,1.56063269 C88.9579,1.34471504 88.9980707,1.14285714 89.0784122,0.958071805 C89.1607622,0.767260859 89.2732402,0.599548079 89.4138377,0.457946272 C89.553431,0.318353 89.7201395,0.2048707 89.9099462,0.123524981 C90.0977443,0.0411749937 90.3006065,0 90.5125071,0 L95.5207923,0 C95.7336971,0 95.9385678,0.0411749937 96.1323916,0.123524981 C96.3252111,0.2048707 96.4939281,0.318353 96.6335214,0.457946272 C96.7751232,0.600552347 96.8876012,0.768265127 96.9689469,0.958071805 C97.0492884,1.14285714 97.0894591,1.34471504 97.0894591,1.56063269 L97.0894591,4.40572433 L89.763323,4.40572433 L89.763323,6.44037158 C89.763323,6.64524228 89.8376389,6.82199347 89.984262,6.96962089 C90.1308852,7.11523977 90.3076364,7.18955561 90.5125071,7.18955561 L97.0894591,7.18955561 L97.0894591,8 L90.5125071,8 Z" id="e2" fill="#F7B154"></path>
            <path d="M79.6897071,8 C79.475798,8 79.2729358,7.95882501 79.0871462,7.87848356 C78.8983438,7.7951293 78.730631,7.68265127 78.5910377,7.54205373 C78.4494359,7.39944765 78.3369579,7.23173487 78.2566164,7.04594527 C78.176275,6.85814713 78.1351,6.65528496 78.1351,6.44037158 L78.1351,1.56063269 C78.1351,1.34471504 78.176275,1.14185287 78.2566164,0.958071805 C78.3379622,0.769269395 78.4504402,0.600552347 78.5910377,0.457946272 C78.730631,0.318353 78.8983438,0.2048707 79.0871462,0.123524981 C79.2749443,0.0411749937 79.4788108,0 79.6897071,0 L86.2385396,0 L86.2385396,0.811448657 L79.6897071,0.811448657 C79.4848364,0.811448657 79.3070809,0.884760231 79.161462,1.03238765 C79.0148389,1.17800653 78.940523,1.35576199 78.940523,1.56063269 L78.940523,6.44037158 C78.940523,6.64423801 79.0148389,6.82199347 79.161462,6.96962089 C79.3070809,7.11523977 79.4848364,7.18855134 79.6897071,7.18855134 L86.2666591,7.18855134 L86.2666591,8 L79.6897071,8 Z" id="c" fill="#F7B154"></path>
            <polygon id="i" fill="#F7B154" points="74.0944 8.0001 74.9074 8.0001 74.9074 0.0001 74.0944 0.0001"></polygon>
            <path d="M65.9501786,8 C65.1999308,6.61843409 64.4496831,5.25272547 63.6994353,3.90188305 C62.9818932,2.61248761 62.2653421,1.31318137 61.5478,0 L62.5022103,0 L66.5299606,7.42517344 L70.5557286,0 L71.5091479,0 L67.0958674,8 L65.9501786,8 Z" id="v" fill="#F7B154"></path>
            <path d="M54.9468,8 L54.9468,1.56095144 C54.9468,1.34489594 54.9874343,1.14271556 55.0677118,0.958374628 C55.1489804,0.767096135 55.2619635,0.599603568 55.4026969,0.459861249 C55.5444214,0.317145689 55.7109229,0.204162537 55.8982371,0.123885035 C56.0865423,0.0426164519 56.2887227,0 56.5008139,0 L62.004311,0 L62.004311,0.811694747 L56.5008139,0.811694747 C56.2976424,0.811694747 56.120239,0.885034688 55.9725681,1.03072349 C55.8258882,1.17839445 55.7525483,1.35579782 55.7525483,1.56095144 L55.7525483,8 L54.9468,8 Z" id="r2" fill="#F7B154"></path>
            <path d="M45.5549139,0.811794747 C45.3507513,0.811794747 45.173348,0.885134688 45.0266681,1.03181457 C44.8809793,1.17849445 44.8066483,1.35589782 44.8066483,1.56105144 L44.8066483,3.59573925 L51.3130903,3.59573925 L51.3130903,1.56105144 C51.3130903,1.3618443 51.2407414,1.17948553 51.1029813,1.03478781 C50.9602657,0.886125768 50.778898,0.811794747 50.5638336,0.811794747 L45.5549139,0.811794747 Z M45.5549139,8.0001 C45.3418316,8.0001 45.1396512,7.95946571 44.9533281,7.87819713 C44.7650229,7.79692854 44.5985214,7.68493647 44.4567969,7.54321199 C44.3150724,7.40049643 44.2020893,7.23300387 44.1218118,7.04568969 C44.0415343,6.86035768 44.0009,6.65619514 44.0009,6.44113072 L44.0009,1.56105144 C44.0009,1.34400486 44.0415343,1.14182448 44.1218118,0.957483548 C44.2030804,0.768187215 44.3160635,0.600694648 44.4567969,0.458970168 C44.5985214,0.317245689 44.7650229,0.204262537 44.9523371,0.123985035 C45.1406423,0.0427164519 45.3438138,0.0001 45.5549139,0.0001 L50.5638336,0.0001 C50.7769159,0.0001 50.9820695,0.0427164519 51.174339,0.123985035 C51.3675997,0.206244698 51.5370744,0.318236769 51.6768167,0.458970168 C51.8175501,0.599703568 51.9295422,0.768187215 52.0118019,0.956492468 C52.0920794,1.14281556 52.1327137,1.34499594 52.1327137,1.56105144 L52.1327137,4.40644291 L44.8066483,4.40644291 L44.8066483,6.44113072 C44.8066483,6.64529326 44.8809793,6.82269663 45.0266681,6.96937651 C45.173348,7.11506531 45.3507513,7.18939633 45.5549139,7.18939633 L52.1327137,7.18939633 L52.1327137,8.0001 L45.5549139,8.0001 Z" id="e1" fill="#F7B154"></path>
            <path d="M34.6418139,8 C34.4277405,8 34.2265512,7.95936571 34.0412192,7.87809713 C33.852914,7.79682854 33.6854214,7.68483647 33.5436969,7.54212091 C33.4029635,7.40138751 33.2899804,7.23389495 33.2087118,7.04459861 C33.137354,6.87908821 33.0967197,6.70069376 33.0887911,6.51139742 L33.8985037,6.51139742 C33.9163431,6.69474727 33.988692,6.84340932 34.1135681,6.96927651 C34.260248,7.11496531 34.4376513,7.18929633 34.6418139,7.18929633 L39.6517247,7.18929633 C39.8558872,7.18929633 40.0332906,7.11496531 40.1789794,6.96828543 C40.3256593,6.82358771 40.3999903,6.64519326 40.3999903,6.44103072 L40.3999903,5.15460852 C40.3999903,4.95242815 40.3256593,4.7740337 40.1789794,4.62735382 C40.0332906,4.47968285 39.8558872,4.40634291 39.6517247,4.40634291 L34.6418139,4.40634291 C34.4287316,4.40634291 34.2265512,4.36372646 34.0412192,4.28344896 C33.852914,4.20218038 33.6864125,4.08919722 33.5436969,3.94747275 C33.4029635,3.80574827 33.2899804,3.63726462 33.2087118,3.44995045 C33.1284343,3.26461843 33.0878,3.0604559 33.0878,2.84539148 L33.0878,1.56095144 C33.0878,1.34489594 33.1284343,1.14172448 33.2087118,0.958374628 C33.2909715,0.767096135 33.4029635,0.599603568 33.5436969,0.458870168 C33.6864125,0.317145689 33.852914,0.204162537 34.0402281,0.123885035 C34.2275423,0.0426164519 34.4307138,0 34.6418139,0 L39.6517247,0 C39.8638159,0 40.0699606,0.0426164519 40.261239,0.123885035 C40.4554908,0.206144698 40.6239744,0.318136769 40.7637167,0.458870168 C40.9044501,0.599603568 41.0174333,0.767096135 41.0987019,0.957383548 C41.1700597,1.12388503 41.210694,1.30227948 41.2186226,1.49058474 L40.396026,1.49058474 C40.3781865,1.30723489 40.3048466,1.15857284 40.1789794,1.03270565 C40.0322995,0.885034688 39.8548961,0.811694747 39.6517247,0.811694747 L34.6418139,0.811694747 C34.4376513,0.811694747 34.260248,0.885034688 34.1135681,1.03270565 C33.9678793,1.17839445 33.8935483,1.3567889 33.8935483,1.56095144 L33.8935483,2.84539148 C33.8935483,3.04955401 33.9678793,3.22794846 34.1135681,3.37363726 C34.2582658,3.52031715 34.4356692,3.59563925 34.6418139,3.59563925 L39.6517247,3.59563925 C39.8618337,3.59563925 40.0679784,3.63726462 40.2622301,3.7185332 C40.4554908,3.79980178 40.6249655,3.91377602 40.7637167,4.05351833 C40.9044501,4.19425173 41.0174333,4.3617443 41.0987019,4.55203171 C41.1799705,4.73835481 41.2196137,4.94152626 41.2196137,5.15460852 L41.2196137,6.44103072 C41.2196137,6.65510406 41.1799705,6.85827552 41.0987019,7.04558969 C41.0174333,7.23488603 40.9044501,7.40138751 40.7637167,7.54311199 C40.6239744,7.68285431 40.4554908,7.79583746 40.261239,7.87809713 C40.0719427,7.95936571 39.865798,8 39.6517247,8 L34.6418139,8 Z" id="s1" fill="#F7B154"></path>
            <path d="M23.3632641,3.62698711 L27.8904891,3.62698711 L27.8904891,1.72537239 L23.3632641,1.72537239 L23.3632641,3.62698711 Z M29.6318835,3.71711103 C29.6318835,3.9394167 29.5868215,4.14970585 29.4987004,4.3509826 C29.4095778,4.55125798 29.2914153,4.72750031 29.1432116,4.87870822 C28.9950078,5.03091751 28.8217696,5.15108274 28.6214942,5.23419702 C28.4222202,5.32031543 28.2079255,5.36237326 27.9786102,5.36237326 L27.9005028,5.36237326 C28.1818897,5.69683315 28.4702863,6.03830267 28.7656925,6.38678183 C29.0621,6.73626236 29.3504966,7.07572913 29.6318835,7.41018901 L29.6318835,8 L27.8564422,8 L25.6484062,5.36237326 L23.3632641,5.37438979 C23.3852944,5.37438979 23.3963096,5.39642008 23.3963096,5.44148204 L23.3852944,5.44148204 C23.3702738,5.44148204 23.3632641,5.43747653 23.3632641,5.43046689 L23.3632641,8 L21.6439,8 L21.6439,-5.68434189e-14 L27.9786102,-5.68434189e-14 C28.2079255,-5.68434189e-14 28.4222202,0.0430592064 28.6214942,0.128176242 C28.8217696,0.213293278 28.9950078,0.332457129 29.1432116,0.483665039 C29.2914153,0.636875704 29.4095778,0.81211666 29.4987004,1.01339342 C29.5868215,1.21266742 29.6318835,1.42495932 29.6318835,1.64626361 L29.6318835,3.71711103 Z" id="r1" fill="#F3F5FF"></path>
            <polygon id="t" fill="#F3F5FF" points="19.2124 0 19.2124 1.733 16.0884 1.733 16.0884 8 14.3594 8 14.3594 1.733 11.2354 1.733 11.2354 0"></polygon>
            <path d="M7.168,0 L8.952,0 L8.952,8 L7.223,8 L7.223,2.633 C6.772,3.166 6.313,3.717 5.844,4.283 C5.375,4.85 4.918,5.396 4.476,5.922 L1.717,2.645 L1.717,8 L0,8 L0,0 L1.772,0 L4.476,3.233 L7.168,0 Z" id="m" fill="#F3F5FF"></path>
        </g>
        <g id="logomark">
            <polygon id="bar-3" fill="url(#linearGradient-1)" points="21 2 17.999 2 12 14 14.995 14"></polygon>
            <polygon id="bar-2" fill="url(#linearGradient-2)" points="12.999 -0.0001 5 16 8 16 15.998 -0.0001"></polygon>
            <polygon id="bar-1" fill="url(#linearGradient-3)" points="5.999 2 0 14 2.995 14 9 2"></polygon>
        </g>
    </g>
</svg>
